<mxfile host="app.diagrams.net" modified="2021-03-15T11:49:03.166Z" agent="5.0 (Windows)" etag="O5xs2YEcYXCten-Aume6" version="14.4.5" type="github">
  <diagram id="qwjXpjzYTB8J1yrfIVx8" name="Page-1">
    <mxGraphModel dx="1673" dy="865" grid="1" gridSize="10" guides="1" tooltips="1" connect="1" arrows="1" fold="1" page="1" pageScale="1" pageWidth="827" pageHeight="1169" math="0" shadow="0">
      <root>
        <mxCell id="0" />
        <mxCell id="1" parent="0" />
        <mxCell id="ua9Ke9GlhCK5-_38lQET-1" value="Elevator Manager" style="rounded=0;whiteSpace=wrap;html=1;align=center;" vertex="1" parent="1">
          <mxGeometry x="130" y="110" width="340" height="30" as="geometry" />
        </mxCell>
        <mxCell id="ua9Ke9GlhCK5-_38lQET-2" style="edgeStyle=orthogonalEdgeStyle;rounded=0;orthogonalLoop=1;jettySize=auto;html=1;" edge="1" parent="1" source="ua9Ke9GlhCK5-_38lQET-20" target="ua9Ke9GlhCK5-_38lQET-7">
          <mxGeometry relative="1" as="geometry" />
        </mxCell>
        <mxCell id="ua9Ke9GlhCK5-_38lQET-3" value="" style="rounded=0;whiteSpace=wrap;html=1;align=left;" vertex="1" parent="1">
          <mxGeometry x="130" y="140" width="340" height="30" as="geometry" />
        </mxCell>
        <mxCell id="ua9Ke9GlhCK5-_38lQET-4" style="edgeStyle=orthogonalEdgeStyle;rounded=0;orthogonalLoop=1;jettySize=auto;html=1;entryX=0.5;entryY=0;entryDx=0;entryDy=0;" edge="1" parent="1" source="ua9Ke9GlhCK5-_38lQET-5" target="ua9Ke9GlhCK5-_38lQET-26">
          <mxGeometry relative="1" as="geometry" />
        </mxCell>
        <mxCell id="ua9Ke9GlhCK5-_38lQET-5" value="&lt;div&gt;ElevatorManger(controller conter:Int)&lt;/div&gt;&lt;div&gt;requestElevator(destination: int, direction:Direction):void&lt;br&gt;&lt;/div&gt;" style="rounded=0;whiteSpace=wrap;html=1;align=left;" vertex="1" parent="1">
          <mxGeometry x="130" y="170" width="340" height="40" as="geometry" />
        </mxCell>
        <mxCell id="ua9Ke9GlhCK5-_38lQET-6" value="ElevatorController" style="rounded=0;whiteSpace=wrap;html=1;align=center;" vertex="1" parent="1">
          <mxGeometry x="740" y="110" width="330" height="30" as="geometry" />
        </mxCell>
        <mxCell id="ua9Ke9GlhCK5-_38lQET-7" value="&lt;div&gt;id:int&lt;/div&gt;&lt;div&gt;curFloor:int&lt;br&gt;&lt;/div&gt;" style="rounded=0;whiteSpace=wrap;html=1;align=left;" vertex="1" parent="1">
          <mxGeometry x="740" y="140" width="330" height="30" as="geometry" />
        </mxCell>
        <mxCell id="ua9Ke9GlhCK5-_38lQET-8" value="&lt;div&gt;ElevatorController(id:Int)&lt;/div&gt;&lt;div&gt;gotoFloor(destination: int):void&lt;br&gt;&lt;/div&gt;" style="rounded=0;whiteSpace=wrap;html=1;align=left;" vertex="1" parent="1">
          <mxGeometry x="740" y="170" width="330" height="40" as="geometry" />
        </mxCell>
        <mxCell id="ua9Ke9GlhCK5-_38lQET-9" value="&lt;div&gt;&amp;lt;&amp;lt;interface&amp;gt;&amp;gt;&lt;br&gt;&lt;/div&gt;&lt;div&gt;ElevatorScheduler&lt;/div&gt;" style="rounded=0;whiteSpace=wrap;html=1;align=center;" vertex="1" parent="1">
          <mxGeometry x="110" y="440" width="470" height="30" as="geometry" />
        </mxCell>
        <mxCell id="ua9Ke9GlhCK5-_38lQET-10" value="" style="rounded=0;whiteSpace=wrap;html=1;align=left;" vertex="1" parent="1">
          <mxGeometry x="110" y="470" width="470" height="30" as="geometry" />
        </mxCell>
        <mxCell id="ua9Ke9GlhCK5-_38lQET-11" value="selectElevator(manager: ElevatorManager, destination:int, direction:Direction):int" style="rounded=0;whiteSpace=wrap;html=1;align=left;" vertex="1" parent="1">
          <mxGeometry x="110" y="500" width="470" height="40" as="geometry" />
        </mxCell>
        <mxCell id="ua9Ke9GlhCK5-_38lQET-12" style="edgeStyle=orthogonalEdgeStyle;rounded=0;orthogonalLoop=1;jettySize=auto;html=1;entryX=0.5;entryY=1;entryDx=0;entryDy=0;" edge="1" parent="1" source="ua9Ke9GlhCK5-_38lQET-13" target="ua9Ke9GlhCK5-_38lQET-11">
          <mxGeometry relative="1" as="geometry" />
        </mxCell>
        <mxCell id="ua9Ke9GlhCK5-_38lQET-13" value="&lt;div&gt;ThroughputScheduler&lt;br&gt;&lt;/div&gt;" style="rounded=0;whiteSpace=wrap;html=1;align=center;" vertex="1" parent="1">
          <mxGeometry x="110" y="650" width="470" height="30" as="geometry" />
        </mxCell>
        <mxCell id="ua9Ke9GlhCK5-_38lQET-14" value="" style="rounded=0;whiteSpace=wrap;html=1;align=left;" vertex="1" parent="1">
          <mxGeometry x="110" y="680" width="470" height="30" as="geometry" />
        </mxCell>
        <mxCell id="ua9Ke9GlhCK5-_38lQET-15" value="selectElevator(manager: ElevatorManager, destination:int, direction:Direction):int" style="rounded=0;whiteSpace=wrap;html=1;align=left;" vertex="1" parent="1">
          <mxGeometry x="110" y="710" width="470" height="40" as="geometry" />
        </mxCell>
        <mxCell id="ua9Ke9GlhCK5-_38lQET-16" style="edgeStyle=orthogonalEdgeStyle;rounded=0;orthogonalLoop=1;jettySize=auto;html=1;entryX=0.809;entryY=1.075;entryDx=0;entryDy=0;entryPerimeter=0;" edge="1" parent="1" source="ua9Ke9GlhCK5-_38lQET-17" target="ua9Ke9GlhCK5-_38lQET-11">
          <mxGeometry relative="1" as="geometry">
            <Array as="points">
              <mxPoint x="865" y="580" />
              <mxPoint x="490" y="580" />
            </Array>
          </mxGeometry>
        </mxCell>
        <mxCell id="ua9Ke9GlhCK5-_38lQET-17" value="&lt;div&gt;ResponseTimeSchduler&lt;/div&gt;" style="rounded=0;whiteSpace=wrap;html=1;align=center;" vertex="1" parent="1">
          <mxGeometry x="630" y="650" width="470" height="30" as="geometry" />
        </mxCell>
        <mxCell id="ua9Ke9GlhCK5-_38lQET-18" value="" style="rounded=0;whiteSpace=wrap;html=1;align=left;" vertex="1" parent="1">
          <mxGeometry x="630" y="680" width="470" height="30" as="geometry" />
        </mxCell>
        <mxCell id="ua9Ke9GlhCK5-_38lQET-19" value="selectElevator(manager: ElevatorManager, destination:int, direction:Direction):int" style="rounded=0;whiteSpace=wrap;html=1;align=left;" vertex="1" parent="1">
          <mxGeometry x="630" y="710" width="470" height="40" as="geometry" />
        </mxCell>
        <mxCell id="ua9Ke9GlhCK5-_38lQET-20" value="" style="rhombus;whiteSpace=wrap;html=1;strokeWidth=2;fillWeight=-1;hachureGap=8;fillStyle=cross-hatch;fillColor=#006600;sketch=1;align=left;" vertex="1" parent="1">
          <mxGeometry x="470" y="150" width="20" height="10" as="geometry" />
        </mxCell>
        <mxCell id="ua9Ke9GlhCK5-_38lQET-21" value="- controllers" style="text;html=1;strokeColor=none;fillColor=none;align=center;verticalAlign=middle;whiteSpace=wrap;rounded=0;" vertex="1" parent="1">
          <mxGeometry x="650" y="120" width="80" height="20" as="geometry" />
        </mxCell>
        <mxCell id="ua9Ke9GlhCK5-_38lQET-22" value="1..." style="text;html=1;strokeColor=none;fillColor=none;align=center;verticalAlign=middle;whiteSpace=wrap;rounded=0;" vertex="1" parent="1">
          <mxGeometry x="680" y="170" width="40" height="20" as="geometry" />
        </mxCell>
        <mxCell id="ua9Ke9GlhCK5-_38lQET-23" value="Strategy" style="rounded=1;arcSize=10;dashed=1;strokeColor=#000000;fillColor=none;gradientColor=none;dashPattern=8 3 1 3;strokeWidth=2;align=center;" vertex="1" parent="1">
          <mxGeometry x="20" y="420" width="200" height="50" as="geometry" />
        </mxCell>
        <mxCell id="ua9Ke9GlhCK5-_38lQET-24" value="작업처리량 최대화 전략" style="text;html=1;strokeColor=none;fillColor=none;align=center;verticalAlign=middle;whiteSpace=wrap;rounded=0;" vertex="1" parent="1">
          <mxGeometry x="240" y="760" width="230" height="20" as="geometry" />
        </mxCell>
        <mxCell id="ua9Ke9GlhCK5-_38lQET-25" value="대기시간 최소화 전략" style="text;html=1;strokeColor=none;fillColor=none;align=center;verticalAlign=middle;whiteSpace=wrap;rounded=0;" vertex="1" parent="1">
          <mxGeometry x="750" y="760" width="230" height="20" as="geometry" />
        </mxCell>
        <mxCell id="ua9Ke9GlhCK5-_38lQET-26" value="ScheduleFactory" style="rounded=0;whiteSpace=wrap;html=1;align=center;" vertex="1" parent="1">
          <mxGeometry x="390" y="260" width="470" height="30" as="geometry" />
        </mxCell>
        <mxCell id="ua9Ke9GlhCK5-_38lQET-27" value="" style="rounded=0;whiteSpace=wrap;html=1;align=left;" vertex="1" parent="1">
          <mxGeometry x="390" y="290" width="470" height="30" as="geometry" />
        </mxCell>
        <mxCell id="ua9Ke9GlhCK5-_38lQET-28" style="edgeStyle=orthogonalEdgeStyle;rounded=0;orthogonalLoop=1;jettySize=auto;html=1;entryX=0.5;entryY=0;entryDx=0;entryDy=0;" edge="1" parent="1" source="ua9Ke9GlhCK5-_38lQET-29" target="ua9Ke9GlhCK5-_38lQET-9">
          <mxGeometry relative="1" as="geometry" />
        </mxCell>
        <mxCell id="ua9Ke9GlhCK5-_38lQET-29" value="&lt;div&gt;getScheduler(stretegyID:SchedulingStrategyID):ElevetorScheduler&lt;/div&gt;" style="rounded=0;whiteSpace=wrap;html=1;align=left;" vertex="1" parent="1">
          <mxGeometry x="390" y="320" width="470" height="40" as="geometry" />
        </mxCell>
        <mxCell id="ua9Ke9GlhCK5-_38lQET-30" value="객체를 생성하는 기능을 제공" style="text;html=1;strokeColor=none;fillColor=none;align=center;verticalAlign=middle;whiteSpace=wrap;rounded=0;" vertex="1" parent="1">
          <mxGeometry x="680" y="360" width="180" height="40" as="geometry" />
        </mxCell>
      </root>
    </mxGraphModel>
  </diagram>
</mxfile>
